<svg width="80" height="80" viewBox="0 0 80 80" fill="none" xmlns="http://www.w3.org/2000/svg">
<path d="M7.27175 7.50019C6.60919 7.49137 5.97675 7.78554 5.5441 8.30381C5.11145 8.82207 4.92287 9.51137 5.02894 10.1868L14.5497 69.8711C14.7945 71.3787 16.0523 72.4871 17.5326 72.4998H63.2075C64.3186 72.5146 65.2726 71.687 65.4503 70.5543L74.9711 10.1984C75.0771 9.52295 74.8885 8.83365 74.4559 8.31539C74.0232 7.79712 73.3908 7.50295 72.7282 7.51177L7.27175 7.50019ZM47.362 50.6364H32.7837L28.8364 29.3404H50.8945L47.362 50.6364Z" fill="#2684FF"/>
<path fill-rule="evenodd" clip-rule="evenodd" d="M71.9439 29.3403H50.8951L47.3627 50.6363H32.7844L15.5708 71.7354C16.1164 72.2226 16.812 72.4935 17.5333 72.4997H63.2194C64.3304 72.5145 65.2845 71.6869 65.4622 70.5542L71.9439 29.3403Z" fill="url(#paint0_linear_2842_295284)"/>
<defs>
<linearGradient id="paint0_linear_2842_295284" x1="76.8108" y1="35.3041" x2="51.4405" y2="70.1877" gradientUnits="userSpaceOnUse">
<stop offset="0.18" stop-color="#0052CC"/>
<stop offset="1" stop-color="#2684FF"/>
</linearGradient>
</defs>
</svg>
