<svg width="80" height="80" viewBox="0 0 80 80" fill="none" xmlns="http://www.w3.org/2000/svg">
<path fill-rule="evenodd" clip-rule="evenodd" d="M12.1758 55.8041C11.5552 56.8573 10.8583 58.0794 10.2664 59.053C9.73662 59.9848 10.021 61.1864 10.9061 61.7555L23.3169 69.7039C23.7526 69.9838 24.278 70.0699 24.7752 69.9429C25.2725 69.8159 25.6998 69.4863 25.9614 69.0283C26.4578 68.1639 27.0975 67.0412 27.7944 65.839C32.711 57.3938 37.6563 58.4271 46.573 62.8583L58.8788 68.9488C59.3449 69.1797 59.8809 69.2043 60.3648 69.0171C60.8486 68.83 61.239 68.4469 61.4469 67.9553L67.3564 54.0455C67.7739 53.0521 67.3491 51.8937 66.4017 51.4424C63.805 50.1707 58.6402 47.6371 53.9909 45.3023C37.2648 36.8472 23.0496 37.3936 12.1758 55.8041Z" fill="url(#paint0_linear_2842_295278)"/>
<path fill-rule="evenodd" clip-rule="evenodd" d="M67.8251 24.2388C68.4456 23.1856 69.1425 21.9635 69.7345 20.9899C70.2642 20.0581 69.9798 18.8564 69.0948 18.2874L56.6839 10.339C56.2447 10.0311 55.7024 9.92691 55.1865 10.0512C54.6707 10.1756 54.2276 10.5173 53.9631 10.9947C53.4667 11.8591 52.827 12.9818 52.1301 14.184C47.2135 22.6292 42.2682 21.5959 33.3515 17.1647L21.0838 11.104C20.6178 10.8732 20.0817 10.8485 19.5979 11.0357C19.1141 11.2229 18.7237 11.6059 18.5157 12.0976L12.6063 26.0073C12.1887 27.0007 12.6136 28.1591 13.5609 28.6104C16.1577 29.8821 21.3225 32.4157 25.9718 34.7505C42.736 43.1957 56.9513 42.6294 67.8251 24.2388Z" fill="url(#paint1_linear_2842_295278)"/>
<defs>
<linearGradient id="paint0_linear_2842_295278" x1="67.0223" y1="73.8073" x2="52.1664" y2="41.0591" gradientUnits="userSpaceOnUse">
<stop offset="0.18" stop-color="#0052CC"/>
<stop offset="1" stop-color="#2684FF"/>
</linearGradient>
<linearGradient id="paint1_linear_2842_295278" x1="12.9786" y1="6.22568" x2="27.8578" y2="38.9889" gradientUnits="userSpaceOnUse">
<stop offset="0.18" stop-color="#0052CC"/>
<stop offset="1" stop-color="#2684FF"/>
</linearGradient>
</defs>
</svg>
