<svg width="56" height="50" viewBox="0 0 56 50" fill="none" xmlns="http://www.w3.org/2000/svg">
<path d="M28.0053 16.1272L19.353 0.857917C19.6403 0.565426 19.9708 0.373577 20.3014 0.244629C17.7499 1.08436 16.5791 3.94952 16.5791 3.94952L0.772871 31.8368C0.550465 32.7111 0.48868 33.5006 0.516481 34.1956H17.7684L28.0053 16.1272Z" fill="#34A853"/>
<path d="M28.0049 16.1272L38.2417 34.1956H55.4937C55.5215 33.5006 55.4597 32.7111 55.2373 31.8368L39.431 3.94952C39.431 3.94952 38.2572 1.08436 35.7088 0.244629C36.0362 0.373577 36.3698 0.565426 36.6571 0.857917L28.0049 16.1272Z" fill="#FBBC05"/>
<path d="M28.0048 16.1281L36.657 0.858776C36.3697 0.566285 36.0361 0.374435 35.7087 0.245488C35.3318 0.12283 34.9271 0.0410584 34.4885 0.019043H34.0313H21.9782H21.521C21.0854 0.0379134 20.6777 0.119685 20.3009 0.245488C19.9734 0.374435 19.6398 0.566285 19.3525 0.858776L28.0048 16.1281Z" fill="#188038"/>
<path d="M17.771 34.1958L9.21767 49.2921C9.21767 49.2921 8.93348 49.1537 8.54736 48.8675C9.76133 49.8016 10.9413 49.9998 10.9413 49.9998H44.5339C46.3873 49.9998 46.7734 49.2921 46.7734 49.2921C46.7796 49.289 46.7827 49.2858 46.7889 49.2827L38.2417 34.1958H17.771Z" fill="#4285F4"/>
<path d="M17.7717 34.1958H0.519775C0.606267 36.2464 1.49589 37.4447 1.49589 37.4447L2.14458 38.5706C2.19091 38.6366 2.21871 38.6744 2.21871 38.6744L3.63037 41.1527L6.79965 46.6691C6.89232 46.8924 7.00044 47.0969 7.11473 47.2919C7.15798 47.3579 7.19813 47.4302 7.24447 47.4931C7.25682 47.512 7.26918 47.5309 7.28153 47.5498C7.67383 48.1033 8.11247 48.531 8.5511 48.8675C8.93723 49.1569 9.22142 49.2921 9.22142 49.2921L17.7717 34.1958Z" fill="#1967D2"/>
<path d="M38.2417 34.1958H55.4936C55.4071 36.2464 54.5175 37.4447 54.5175 37.4447L53.8688 38.5706C53.8225 38.6366 53.7947 38.6744 53.7947 38.6744L52.383 41.1527L49.2137 46.6691C49.121 46.8924 49.0129 47.0969 48.8987 47.2919C48.8554 47.3579 48.8152 47.4302 48.7689 47.4931C48.7566 47.512 48.7442 47.5309 48.7318 47.5498C48.3395 48.1033 47.9009 48.531 47.4623 48.8675C47.0762 49.1569 46.792 49.2921 46.792 49.2921L38.2417 34.1958Z" fill="#EA4335"/>
</svg>
