<svg width="50" height="50" viewBox="0 0 50 50" fill="none" xmlns="http://www.w3.org/2000/svg">
<path d="M46.2313 0H38.103V11.7781H49.9967V3.32113C49.9999 3.32113 49.409 0.321192 46.2313 0Z" fill="#1967D2"/>
<path d="M38.1062 49.9452V49.9741V49.9998L49.9999 38.2217H49.8933L38.1062 49.9452Z" fill="#1967D2"/>
<path d="M49.9989 38.2213V38.1157L49.8933 38.2213H49.9989Z" fill="#FBBC05"/>
<path d="M49.9999 11.7783H38.1062V38.1161H49.9999V11.7783Z" fill="#FBBC05"/>
<path d="M49.8933 38.2217H38.1062V49.9452L49.8933 38.2217Z" fill="#EA4335"/>
<path d="M38.1062 38.2213H49.8933L49.9999 38.1157H38.1062V38.2213Z" fill="#EA4335"/>
<path d="M38.0771 49.9741H38.1059V49.9453L38.0771 49.9741Z" fill="#34A853"/>
<path d="M11.6257 38.1157V49.9741H38.0773L38.1064 38.1157H11.6257Z" fill="#34A853"/>
<path d="M38.1059 38.2217V38.1157L38.0771 49.9741L38.1059 49.9452V38.2217Z" fill="#34A853"/>
<path d="M0 38.1157V46.3607C0.106568 49.0363 3.00006 49.9741 3.00006 49.9741H11.6257V38.1157H0Z" fill="#188038"/>
<path d="M11.6257 11.7781H38.1063V0H3.33592C3.33592 0 0.213137 0.321192 0 3.63911V38.1159H11.6257V11.7781Z" fill="#4285F4"/>
<path d="M20.289 32.7847C19.6832 32.7847 19.099 32.7058 18.5364 32.548C17.9883 32.3902 17.4835 32.1534 17.0219 31.8378C16.5603 31.5079 16.1492 31.099 15.7886 30.6112C15.4424 30.1234 15.1756 29.5567 14.988 28.9111L17.6493 27.8566C17.8369 28.574 18.1542 29.1191 18.6014 29.4922C19.0485 29.8508 19.6111 30.0302 20.289 30.0302C20.5919 30.0302 20.8804 29.9871 21.1545 29.901C21.4285 29.8006 21.6665 29.6643 21.8685 29.4922C22.0704 29.32 22.2291 29.1191 22.3445 28.8896C22.4743 28.6457 22.5392 28.3731 22.5392 28.0718C22.5392 27.4406 22.3012 26.9456 21.8252 26.587C21.3636 26.2283 20.7217 26.049 19.8996 26.049H18.623V23.4881H19.7914C20.0799 23.4881 20.3611 23.4522 20.6352 23.3805C20.9093 23.3088 21.1473 23.2012 21.3492 23.0577C21.5656 22.8999 21.7315 22.7062 21.8468 22.4767C21.9767 22.2328 22.0416 21.953 22.0416 21.6374C22.0416 21.1496 21.8685 20.7551 21.5223 20.4538C21.1761 20.1382 20.7073 19.9804 20.1159 19.9804C19.4812 19.9804 18.9908 20.1525 18.6446 20.4968C18.3129 20.8268 18.0821 21.1998 17.9523 21.6159L15.3559 20.5614C15.4857 20.2027 15.6804 19.8369 15.94 19.4639C16.1997 19.0765 16.5242 18.7322 16.9137 18.4309C17.3176 18.1153 17.7864 17.8642 18.3201 17.6777C18.8538 17.4769 19.4668 17.3765 20.1592 17.3765C20.866 17.3765 21.5079 17.4769 22.0849 17.6777C22.6763 17.8786 23.1811 18.1584 23.5994 18.517C24.0177 18.8613 24.3423 19.2774 24.5731 19.7652C24.8039 20.2386 24.9193 20.7551 24.9193 21.3146C24.9193 21.745 24.8616 22.1324 24.7462 22.4767C24.6452 22.821 24.5082 23.1294 24.3351 23.402C24.162 23.6746 23.96 23.9113 23.7292 24.1122C23.5129 24.2987 23.2893 24.4493 23.0585 24.5641V24.7363C23.7509 25.0088 24.3206 25.4464 24.7678 26.049C25.2294 26.6515 25.4602 27.4119 25.4602 28.3301C25.4602 28.9757 25.3376 29.5711 25.0923 30.1162C24.8471 30.6471 24.4937 31.1133 24.0321 31.515C23.585 31.9167 23.0441 32.2252 22.4094 32.4404C21.7747 32.6699 21.0679 32.7847 20.289 32.7847Z" fill="#4285F4"/>
<path d="M30.6271 32.4404V21.0348L28.0091 22.1324L26.9705 19.7437L31.3195 17.7208H33.4615V32.4404H30.6271Z" fill="#4285F4"/>
</svg>
