<svg width="80" height="80" viewBox="0 0 80 80" fill="none" xmlns="http://www.w3.org/2000/svg">
<path fill-rule="evenodd" clip-rule="evenodd" d="M14.29 73.0445L5.69159 62.3329C3.62282 59.7557 2.5 56.5865 2.5 53.3247V14.5375C2.5 9.65161 6.40896 5.59742 11.4518 5.25313L51.3303 2.53046C54.2275 2.33266 57.107 3.10273 59.4869 4.71176L73.4981 14.1848C76.0061 15.8805 77.5 18.6525 77.5 21.6106V65.7079C77.5 70.4894 73.6564 74.4482 68.7191 74.7522L24.4583 77.4767C20.5183 77.7192 16.71 76.0592 14.29 73.0445Z" fill="white"/>
<path d="M28.1205 33.9465V33.4387C28.1205 32.1515 29.1514 31.0839 30.4801 30.9952L40.1585 30.3491L53.5429 50.0586V32.7601L50.0978 32.3009V32.0597C50.0978 30.7573 51.1523 29.6827 52.4979 29.6138L61.3042 29.1627V30.4299C61.3042 31.0249 60.8618 31.5337 60.2555 31.6363L58.1363 31.9947V60.009L55.4767 60.9236C53.2548 61.6877 50.7812 60.8698 49.5092 58.9504L36.5154 39.3427V58.0572L40.5149 58.8226L40.4591 59.1936C40.2846 60.3556 39.2814 61.2344 38.0677 61.2884L28.1205 61.7312C27.989 60.4816 28.9255 59.3637 30.2175 59.2279L31.526 59.0905V34.1379L28.1205 33.9465Z" fill="black"/>
<path fill-rule="evenodd" clip-rule="evenodd" d="M51.6875 7.41671L11.8089 10.1394C9.42022 10.3025 7.5686 12.2229 7.5686 14.5372V53.3244C7.5686 55.499 8.31715 57.6118 9.69633 59.3299L18.2947 70.0415C19.6849 71.7734 21.8727 72.727 24.1361 72.5877L68.3968 69.8631C70.6653 69.7235 72.4313 67.9046 72.4313 65.7077V21.6104C72.4313 20.2512 71.745 18.9776 70.5926 18.1985L56.5814 8.72549C55.1535 7.76007 53.4258 7.29803 51.6875 7.41671ZM13.7864 15.1422C13.2318 14.7316 13.4957 13.8761 14.1925 13.8261L51.9557 11.1175C53.1589 11.0312 54.3545 11.3626 55.3276 12.052L62.9044 17.4201C63.1921 17.6239 63.0572 18.0638 62.7011 18.0832L22.7099 20.2582C21.4997 20.324 20.3051 19.9684 19.3428 19.256L13.7864 15.1422ZM20.8342 27.0765C20.8342 25.7773 21.8838 24.7042 23.2259 24.6311L65.5079 22.3284C66.8159 22.2572 67.9171 23.2631 67.9171 24.5293V62.7129C67.9171 64.0097 66.8712 65.0818 65.5317 65.158L23.5174 67.5486C22.0617 67.6314 20.8342 66.5128 20.8342 65.1035V27.0765Z" fill="black"/>
</svg>
