<svg width="80" height="80" viewBox="0 0 80 80" fill="none" xmlns="http://www.w3.org/2000/svg">
<path d="M66.2505 37.4994C69.702 37.4994 72.5 34.7014 72.5 31.25C72.5 27.7985 69.7018 25.0005 66.2503 25.0005C62.7985 25.0005 60 27.7987 60 31.2505V37.4994H66.2505ZM48.75 37.4994C52.2018 37.4994 55 34.7012 55 31.2494V13.7505C55 10.2987 52.2018 7.50049 48.75 7.50049C45.2982 7.50049 42.5 10.2987 42.5 13.7505V31.2494C42.5 34.7012 45.2982 37.4994 48.75 37.4994Z" fill="#2EB67D"/>
<path d="M13.7495 42.5006C10.298 42.5006 7.5 45.2986 7.5 48.75C7.5 52.2015 10.2983 54.9995 13.7497 54.9995C17.2015 54.9995 20 52.2013 20 48.7495V42.5006H13.7495ZM31.25 42.5006C27.7982 42.5006 25 45.2988 25 48.7506V66.2495C25 69.7013 27.7982 72.4995 31.25 72.4995C34.7018 72.4995 37.5 69.7013 37.5 66.2495V48.7506C37.5 45.2988 34.7018 42.5006 31.25 42.5006Z" fill="#E01E5A"/>
<path d="M42.5008 66.2505C42.5008 69.702 45.2988 72.5 48.7503 72.5C52.2018 72.5 54.9998 69.7017 54.9998 66.2503C54.9998 62.7985 52.2015 60 48.7498 60L42.5008 60L42.5008 66.2505ZM42.5008 48.75C42.5008 52.2018 45.299 55 48.7508 55L66.2498 55C69.7015 55 72.4998 52.2018 72.4998 48.75C72.4998 45.2982 69.7015 42.5 66.2498 42.5L48.7508 42.5C45.2991 42.5 42.5008 45.2982 42.5008 48.75Z" fill="#ECB22E"/>
<path d="M37.4992 13.7495C37.4992 10.298 34.7012 7.5 31.2497 7.5C27.7982 7.5 25.0002 10.2983 25.0002 13.7497C25.0002 17.2015 27.7985 20 31.2502 20L37.4992 20L37.4992 13.7495ZM37.4992 31.25C37.4992 27.7982 34.701 25 31.2492 25L13.7502 25C10.2985 25 7.50024 27.7982 7.50024 31.25C7.50024 34.7018 10.2985 37.5 13.7502 37.5L31.2492 37.5C34.7009 37.5 37.4992 34.7018 37.4992 31.25Z" fill="#36C5F0"/>
</svg>
