<svg width="80" height="80" viewBox="0 0 80 80" fill="none" xmlns="http://www.w3.org/2000/svg">
<path d="M7.17987 15.9202C5 20.1984 5 25.799 5 37V43C5 54.201 5 59.8016 7.17987 64.0798C9.09734 67.8431 12.1569 70.9027 15.9202 72.8201C20.1984 75 25.799 75 37 75H43C54.201 75 59.8016 75 64.0798 72.8201C67.8431 70.9027 70.9027 67.8431 72.8201 64.0798C75 59.8016 75 54.201 75 43V37C75 25.799 75 20.1984 72.8201 15.9202C70.9027 12.1569 67.8431 9.09734 64.0798 7.17987C59.8016 5 54.201 5 43 5H37C25.799 5 20.1984 5 15.9202 7.17987C12.1569 9.09734 9.09734 12.1569 7.17987 15.9202Z" fill="url(#paint0_linear_2842_295274)"/>
<path d="M5.66306 20.6986C5 24.4668 5 29.4667 5 36.9996V42.9996C5 54.2007 5 59.8012 7.17987 64.0795C9.09734 67.8427 12.1569 70.9023 15.9202 72.8198C20.1984 74.9996 25.799 74.9996 37 74.9996H43C54.201 74.9996 59.8016 74.9996 64.0798 72.8198C67.8431 70.9023 70.9027 67.8427 72.8201 64.0795C75 59.8012 75 54.2007 75 42.9996V36.9996C75 25.7986 75 20.1981 72.8201 15.9198C70.9694 12.2875 68.0546 9.31074 64.47 7.38379L5.66306 20.6986Z" fill="url(#paint1_linear_2842_295274)"/>
<path d="M74.2758 59.6348C73.9544 61.3241 73.4903 62.7642 72.8202 64.0794C70.9027 67.8427 67.8431 70.9023 64.0798 72.8197C59.9296 74.9344 54.5351 74.9976 43.9907 74.9995H40.1465V67.0916L74.2758 59.6348Z" fill="url(#paint2_linear_2842_295274)"/>
<path d="M43.0014 5H37.0014C34.8222 5 32.8551 5 31.0684 5.01605V14.9263L64.4649 7.38063C64.3379 7.31239 64.2099 7.24546 64.0812 7.17987C61.7061 5.96971 58.9235 5.43137 55.0014 5.19189C51.8586 5 47.9841 5 43.0014 5Z" fill="url(#paint3_linear_2842_295274)"/>
<path d="M75.0009 43.4335C75.0006 50.9475 74.9873 55.9004 74.2767 59.6352L62.4067 62.2286V44.5397L75.0009 41.6108V43.4335Z" fill="url(#paint4_linear_2842_295274)"/>
<path fill-rule="evenodd" clip-rule="evenodd" d="M37.353 33.4447C37.353 31.838 38.6666 31.2201 40.8423 31.2201C43.9621 31.2201 47.9029 32.1676 51.0228 33.8567V24.1753C47.6156 22.8158 44.2495 22.2803 40.8423 22.2803C32.5091 22.2803 26.9673 26.6472 26.9673 33.9391C26.9673 45.3096 42.5664 43.4969 42.5664 48.3994C42.5664 50.2944 40.9244 50.9124 38.6256 50.9124C35.2184 50.9124 30.8671 49.5117 27.4188 47.6166V57.4216C31.2365 59.0695 35.0952 59.7698 38.6256 59.7698C47.164 59.7698 53.0342 55.5265 53.0342 48.1522C52.9932 35.8754 37.353 38.0588 37.353 33.4447Z" fill="white"/>
<defs>
<linearGradient id="paint0_linear_2842_295274" x1="5" y1="5" x2="27.9916" y2="21.2552" gradientUnits="userSpaceOnUse">
<stop stop-color="#392993"/>
<stop offset="1" stop-color="#4B47B9"/>
</linearGradient>
<linearGradient id="paint1_linear_2842_295274" x1="7.63599" y1="21.4358" x2="58.3916" y2="63.3021" gradientUnits="userSpaceOnUse">
<stop stop-color="#594BB9"/>
<stop offset="1" stop-color="#60A8F2"/>
</linearGradient>
<linearGradient id="paint2_linear_2842_295274" x1="40.1465" y1="67.3846" x2="75" y2="74.9997" gradientUnits="userSpaceOnUse">
<stop stop-color="#61A2EF"/>
<stop offset="1" stop-color="#58E6FD"/>
</linearGradient>
<linearGradient id="paint3_linear_2842_295274" x1="31.0684" y1="9.97908" x2="75.0014" y2="5" gradientUnits="userSpaceOnUse">
<stop stop-color="#534EBE"/>
<stop offset="1" stop-color="#6875E2"/>
</linearGradient>
<linearGradient id="paint4_linear_2842_295274" x1="62.4067" y1="44.6862" x2="75.0009" y2="59.7698" gradientUnits="userSpaceOnUse">
<stop stop-color="#71A5F3"/>
<stop offset="1" stop-color="#6CC3FA"/>
</linearGradient>
</defs>
</svg>
