<svg width="80" height="80" viewBox="0 0 80 80" fill="none" xmlns="http://www.w3.org/2000/svg">
<path d="M47.3878 47.4045C42.6387 49.1916 37.3169 49.1948 32.5677 47.4056C30.7784 42.6616 30.7779 37.3409 32.565 32.5962C37.313 30.8061 42.64 30.8058 47.3881 32.5959C49.1767 37.3392 49.1759 42.6612 47.3878 47.4045ZM74.5134 34.1666H54.07L68.5248 19.72C66.2563 16.5354 63.4556 13.7379 60.269 11.4707L45.8131 25.9172V5.48706C41.955 4.83845 37.9983 4.83944 34.1402 5.48706V25.9172L19.6843 11.4707C16.4985 13.7363 13.6969 16.5377 11.4282 19.72L25.8852 34.1666H5.44208C4.93745 38.1378 4.7735 41.87 5.44208 45.833H25.8855L11.4285 60.2796C13.7027 63.4689 16.4928 66.2573 19.6843 68.53L34.1402 54.0824V74.5136C37.9987 75.1598 41.9543 75.1602 45.8129 74.5136V54.0824L60.2701 68.53C63.4581 66.2606 66.2539 63.4653 68.5248 60.2796L54.0678 45.833H74.5134C75.1622 41.9807 75.1622 38.0188 74.5134 34.1666Z" fill="#FF4A00"/>
</svg>
