<svg width="39" height="48" viewBox="0 0 39 48" fill="none" xmlns="http://www.w3.org/2000/svg">
<path d="M33.8808 24C30.3264 27.9713 25.161 30.4706 19.4118 30.4706C13.6627 30.4706 8.49731 27.9713 4.94287 24C8.49731 20.0287 13.6627 17.5294 19.4118 17.5294C25.161 17.5294 30.3264 20.0287 33.8808 24Z" fill="white"/>
<path fill-rule="evenodd" clip-rule="evenodd" d="M0 36.9412C0 26.2204 8.69097 17.5294 19.4118 17.5294C13.6627 17.5294 8.49733 20.0287 4.94289 24C8.49733 27.9713 13.6627 30.4706 19.4119 30.4706C25.161 30.4706 30.3264 27.9713 33.8808 24C36.9546 27.4343 38.8236 31.9695 38.8236 36.9412V44.2745C38.8236 45.2275 38.0511 46 37.0981 46H1.72549C0.77253 46 0 45.2275 0 44.2745V36.9412ZM33.8808 24C33.8808 24 33.8808 24 33.8808 24V24Z" fill="#7CD4FD"/>
<path fill-rule="evenodd" clip-rule="evenodd" d="M12.1307 29.0589C9.35893 27.9366 6.90537 26.1926 4.94289 24C8.49733 20.0287 13.6627 17.5294 19.4119 17.5294C25.161 17.5294 30.3264 20.0287 33.8808 24C33.8808 24 33.8808 24 33.8808 24C36.9546 20.5657 38.8236 16.0305 38.8236 11.0588V3.72549C38.8236 2.77253 38.0511 2 37.0981 2L1.7255 2C0.772532 2 7.24413e-07 2.77253 6.41103e-07 3.72549L0 11.0588C-1.28945e-06 19.2047 5.01756 26.1788 12.1307 29.0589Z" fill="#0BA5EC"/>
</svg>
